<?xml version="1.0" encoding="UTF-8" standalone="no"?>
<svg
   xmlns:dc="http://purl.org/dc/elements/1.1/"
   xmlns:cc="http://creativecommons.org/ns#"
   xmlns:rdf="http://www.w3.org/1999/02/22-rdf-syntax-ns#"
   xmlns:svg="http://www.w3.org/2000/svg"
   xmlns="http://www.w3.org/2000/svg"
   xmlns:sodipodi="http://sodipodi.sourceforge.net/DTD/sodipodi-0.dtd"
   xmlns:inkscape="http://www.inkscape.org/namespaces/inkscape"
   width="100"
   height="100"
   viewBox="0 0 26.458333 26.458333"
   version="1.1"
   id="svg8"
   inkscape:version="1.0.1 (3bc2e813f5, 2020-09-07)"
   sodipodi:docname="logo.svg">
  <style
     id="style964"></style>
  <defs
     id="defs2" />
  <sodipodi:namedview
     id="base"
     pagecolor="#ffffff"
     bordercolor="#666666"
     borderopacity="1.0"
     inkscape:pageopacity="0.0"
     inkscape:pageshadow="2"
     inkscape:zoom="5.6"
     inkscape:cx="65.295406"
     inkscape:cy="39.445442"
     inkscape:document-units="mm"
     inkscape:current-layer="layer1"
     inkscape:document-rotation="0"
     showgrid="false"
     units="px"
     inkscape:pagecheckerboard="false"
     showborder="true"
     borderlayer="false"
     inkscape:showpageshadow="true"
     inkscape:window-width="1609"
     inkscape:window-height="1040"
     inkscape:window-x="231"
     inkscape:window-y="32"
     inkscape:window-maximized="0" />
  <metadata
     id="metadata5">
    <rdf:RDF>
      <cc:Work
         rdf:about="">
        <dc:format>image/svg+xml</dc:format>
        <dc:type
           rdf:resource="http://purl.org/dc/dcmitype/StillImage" />
        <dc:title></dc:title>
      </cc:Work>
    </rdf:RDF>
  </metadata>
  <g
     inkscape:label="Слой 1"
     inkscape:groupmode="layer"
     id="layer1">
    <path
       id="rect890"
       style="fill:#454266;fill-opacity:1;fill-rule:nonzero;stroke:none;stroke-width:0.100675;stroke-miterlimit:4;stroke-dasharray:none;stroke-opacity:1"
       d="m 13.154282,0.06549365 c -0.68947,0.0020375 -1.386268,0.0572513 -2.085283,0.16817174 C 8.7818506,0.59659197 6.6213174,1.5736285 4.7762478,3.0793259 4.2625227,3.4985575 3.3932544,4.3662602 2.9740411,4.8782749 1.2895525,6.935657 0.25567164,9.442403 0.01044976,12.063991 c -0.07143303,0.763736 -0.02903083,2.448294 0.07924099,3.149517 0.41718477,2.701891 1.57052885,5.11249 3.38684965,7.078796 2.7083424,2.931988 6.6426636,4.495121 10.6087746,4.214915 5.3138,-0.375419 9.880241,-3.866937 11.612688,-8.879141 0.531197,-1.536837 0.742539,-2.946287 0.701371,-4.677174 C 26.347427,10.766784 25.836671,8.8212545 24.835975,6.9961218 22.449781,2.6440295 17.980576,0.0512291 13.154282,0.06549365 Z" />
    <path
       id="rect882"
       style="fill:#9999cc;fill-opacity:1;fill-rule:nonzero;stroke:none;stroke-width:0.100675;stroke-miterlimit:4;stroke-dasharray:none;stroke-opacity:1"
       d="m 10.876802,6.7747668 c -0.613965,0.00905 -1.2776292,0.2009397 -1.8246132,0.5580133 -0.2902317,0.1894678 -0.3105603,0.196239 -0.5882474,0.196239 -0.3791487,0 -0.8851949,0.064687 -1.277919,0.1633642 C 6.355968,7.9009435 5.6717203,8.4496844 5.2648776,9.2330666 4.988793,9.7646808 4.9936722,9.7177789 4.8449532,13.235693 c -0.2531754,5.988831 -0.2400081,5.525619 -0.1634438,5.768776 0.1316463,0.418067 0.4832825,0.769471 0.8762917,0.875827 0.2093328,0.05665 0.5882489,0.01511 0.8009276,-0.08785 0.2697845,-0.130598 0.552885,-0.470352 0.6477209,-0.777358 0.044171,-0.143012 0.080248,-0.303072 0.080248,-0.35565 0,-0.124081 0.4554159,-3.605649 0.5394071,-4.123811 0.035395,-0.218336 0.077613,-0.411227 0.093816,-0.42861 0.016218,-0.01738 0.1613402,0.005 0.3225424,0.04962 0.4146131,0.114893 0.8489037,0.108171 1.2077493,-0.01869 0.1528436,-0.05403 0.2912895,-0.0983 0.3076571,-0.09839 0.016383,-8e-5 0.029883,1.031483 0.030006,2.292375 1.2e-4,1.28211 0.017137,2.395521 0.038534,2.526221 0.05295,0.323315 0.2381581,0.698724 0.4634965,0.939637 0.380981,0.407296 0.705576,0.519952 1.442914,0.500638 0.441949,-0.01158 0.523245,-0.02509 0.743244,-0.1239 0.463092,-0.207987 0.831485,-0.724203 0.922034,-1.29203 0.02263,-0.141918 0.04132,-0.521524 0.04148,-0.843571 1.5e-4,-0.322046 0.01364,-0.585459 0.03001,-0.585384 0.01638,7.9e-5 0.154819,0.05094 0.307655,0.113045 0.425824,0.17303 0.678506,0.223075 1.11153,0.220275 0.45171,-0.0029 0.768155,-0.07518 1.198135,-0.273618 0.156778,-0.07235 0.295222,-0.12137 0.307656,-0.108936 0.01244,0.01244 0.02304,0.327763 0.02357,0.700754 6e-4,0.372991 0.019,0.756601 0.04109,0.85241 0.07259,0.31487 0.242425,0.612189 0.491026,0.859855 0.402982,0.401468 0.763574,0.51651 1.517732,0.484279 0.389855,-0.01666 0.474577,-0.03364 0.705559,-0.141733 0.307972,-0.144116 0.625793,-0.44656 0.788449,-0.750221 0.212726,-0.397143 0.225025,-0.552125 0.22578,-2.852095 l 7.5e-4,-2.106605 0.175304,-0.598642 c 0.28485,-0.972802 0.315863,-1.41173 0.158323,-2.242211 -0.09816,-0.51744 -0.388649,-1.263501 -0.619032,-1.58984 -0.04228,-0.059892 -0.06577,-0.1268823 -0.05218,-0.1488643 0.01386,-0.022441 0.195891,-0.039931 0.415041,-0.039931 h 0.39031 l 0.19089,0.1577828 c 0.222679,0.1840105 0.454945,0.2729715 0.798679,0.3060275 0.192572,0.01852 0.268608,0.0093 0.347352,-0.04233 0.10163,-0.06659 0.134547,-0.197442 0.0611,-0.242836 -0.08757,-0.054117 -0.02967,-0.1238665 0.158167,-0.1905793 0.3507,-0.1245569 0.35399,-0.2987764 0.0085,-0.4515584 -0.164056,-0.072551 -0.206787,-0.1076987 -0.172515,-0.1419659 0.06936,-0.069364 0.05465,-0.1679463 -0.03752,-0.2513659 -0.06207,-0.05617 -0.139935,-0.074387 -0.307814,-0.072107 -0.311197,0.00423 -0.598627,0.1092951 -0.865359,0.3164179 L 20.41132,9.3948029 H 19.837956 19.264513 L 18.913981,9.0612508 c -0.944993,-0.899279 -1.971801,-1.3104832 -3.27233,-1.3104832 -0.872088,0 -1.523452,0.1647175 -2.270825,0.5742954 -0.157267,0.086185 -0.294206,0.1566965 -0.304397,0.1566965 -0.01019,0 -0.0493,-0.093784 -0.08684,-0.2084116 C 12.793564,7.7055927 12.439478,7.2454011 12.013977,7.0186113 11.693791,6.8479538 11.296944,6.7685762 10.876861,6.7747668 Z M 8.2273842,10.190923 c 0.2213283,4.5e-4 0.4052913,0.166299 0.4066641,0.415739 0.0015,0.194659 -0.084939,0.326493 -0.2610584,0.400077 -0.1590521,0.06646 -0.1619583,0.06643 -0.3185093,-0.0017 -0.1663485,-0.0724 -0.2532264,-0.206559 -0.2532264,-0.391083 0,-0.193921 0.051981,-0.289896 0.1977139,-0.365264 0.076696,-0.03966 0.154638,-0.0579 0.2284161,-0.05776 z m 7.1233778,0.99616 c 0.08876,6e-4 0.150993,0.0089 0.150414,0.02194 -7.5e-4,0.01742 -0.02616,0.147289 -0.05644,0.288582 -0.03029,0.141293 -0.04804,0.268267 -0.03947,0.282147 0.0086,0.01388 0.208146,0.03514 0.443497,0.0473 0.235355,0.01215 0.486544,0.04346 0.558166,0.06955 0.137906,0.05022 0.246987,0.211319 0.246716,0.364334 -3e-4,0.186245 -0.243774,1.32085 -0.289667,1.350025 -0.06529,0.0415 -0.415035,0.03947 -0.441017,-0.0026 -0.01157,-0.01872 0.03082,-0.297632 0.09421,-0.619808 0.155939,-0.792632 0.145539,-0.814962 -0.379687,-0.814962 -0.356646,0 -0.324667,-0.0515 -0.489704,0.786275 -0.06584,0.334218 -0.130101,0.624505 -0.142821,0.645084 -0.01272,0.02058 -0.111942,0.03745 -0.220503,0.03745 -0.143118,0 -0.203947,-0.01718 -0.221362,-0.06257 -0.01322,-0.03443 0.08113,-0.583743 0.209651,-1.220698 l 0.233612,-1.158128 0.248109,-0.01187 c 0.03412,-0.0016 0.06671,-0.0023 0.0963,-0.0021 z m 2.165996,0.632602 c 0.07938,-1.02e-4 0.165558,7.5e-4 0.254775,0.0028 0.574362,0.01277 0.669641,0.02459 0.830082,0.103353 0.261543,0.128405 0.371926,0.337842 0.343479,0.651598 -0.02587,0.285247 -0.182894,0.623629 -0.358056,0.771697 -0.232587,0.196608 -0.435497,0.258684 -0.924515,0.282768 l -0.453037,0.02233 -0.03589,0.142972 c -0.01975,0.07863 -0.05162,0.21443 -0.07079,0.301764 l -0.03481,0.158791 -0.246791,0.01178 c -0.135721,0.0065 -0.246791,0.0057 -0.246791,-0.0019 0,-0.09743 0.486156,-2.397608 0.512268,-2.42372 0.01482,-0.01482 0.191926,-0.02396 0.430084,-0.02427 z m -4.495201,0.0015 c 0.391736,-0.0029 0.917863,0.02451 1.032057,0.07094 0.333418,0.135571 0.466993,0.460996 0.360223,0.877765 -0.07149,0.279058 -0.156047,0.413609 -0.381002,0.606162 -0.20448,0.175028 -0.403,0.232005 -0.912113,0.261833 l -0.416825,0.02442 -0.06156,0.297731 -0.06148,0.297732 -0.246092,0.01178 c -0.181303,0.0087 -0.246161,-0.0017 -0.246173,-0.0397 -3.9e-5,-0.131312 0.453866,-2.320595 0.491023,-2.368283 0.02028,-0.02602 0.206904,-0.03864 0.441948,-0.04039 z m 0.293155,0.353014 c -0.146806,0.0012 -0.277894,0.0178 -0.302229,0.04908 -0.05293,0.06804 -0.220068,0.936991 -0.193526,1.006161 0.03683,0.09598 0.527203,0.07373 0.73999,-0.03357 0.214144,-0.107989 0.355726,-0.353349 0.355726,-0.616398 0,-0.22246 -0.04788,-0.307671 -0.20353,-0.361929 -0.0871,-0.03036 -0.249627,-0.04455 -0.396431,-0.04334 z m 4.519316,0 c -0.282699,-6e-4 -0.311638,0.0069 -0.345806,0.08878 -0.0613,0.146839 -0.206096,0.939306 -0.179492,0.982359 0.032,0.05177 0.474168,0.05106 0.661759,-10e-4 v 7.8e-5 c 0.206462,-0.05734 0.374005,-0.264667 0.429383,-0.531419 0.08341,-0.401778 -0.05937,-0.537748 -0.565844,-0.538708 z" />
    <path
       id="rect926-5"
       style="fill:#3a3654;fill-opacity:1;fill-rule:nonzero;stroke:none;stroke-width:0.0970973;stroke-miterlimit:4;stroke-dasharray:none;stroke-opacity:1"
       d="m 12.47475,7.17131 c -0.0102,0.0072 0.05902,0.122962 0.161747,0.269234 0.109556,0.156025 0.247216,0.415203 0.305925,0.576194 L 13.04939,8.309743 13.483989,8.099936 C 13.72312,7.984612 13.926616,7.882618 13.93616,7.873077 13.94981,7.859437 12.647559,7.232743 12.47785,7.17131 c -0.0015,-6.06e-4 -0.0023,-5.27e-4 -0.0031,0 z m 6.277136,1.547193 c -0.05485,-0.0045 0.02779,0.07453 0.183451,0.232026 l 0.276985,0.280088 0.358119,-0.001 0.358634,-10e-4 -0.535884,-0.240813 C 18.999308,8.810774 18.806739,8.72304 18.751886,8.718569 Z m 3.185334,0.279569 c -0.0052,2.3e-4 -0.0084,0.0013 -0.0098,0.0036 -0.06641,0.104619 -0.02712,0.172527 0.155546,0.268719 0.147968,0.07793 0.190894,0.123399 0.201022,0.211873 0.01629,0.142475 -0.07986,0.251719 -0.272851,0.309541 -0.142508,0.0427 -0.147014,0.04937 -0.127643,0.193786 0.01734,0.129379 0.0057,0.159369 -0.08475,0.218594 -0.08381,0.05493 -0.165611,0.06519 -0.411345,0.05064 C 21.048367,10.234745 20.790708,10.139943 20.54559,9.9458 20.402334,9.832357 20.374436,9.825912 20.03451,9.825912 h -0.35915 l 0.12764,0.228409 c 0.450352,0.803635 0.650272,1.62827 0.611849,2.524911 -0.01836,0.428527 -0.04294,0.559046 -0.223242,1.176671 l -0.203087,0.69505 -0.0016,2.143537 c 0,1.299438 -0.0165,2.21216 -0.04082,2.317687 -0.111448,0.483436 -0.522952,0.999601 -0.970484,1.218014 -0.234918,0.114634 -0.247245,0.116272 -0.913641,0.116272 H 17.386078 L 17.126146,20.118324 C 16.796409,19.955989 16.454281,19.60507 16.295703,19.265662 16.14964,18.953012 16.099351,18.609059 16.0983,17.916909 l -10e-4,-0.543121 -0.287838,0.132292 c -0.449379,0.206243 -0.783783,0.271656 -1.286743,0.251664 -0.355949,-0.01415 -0.491979,-0.0392 -0.787548,-0.144693 -0.19649,-0.07013 -0.388646,-0.138068 -0.426847,-0.150895 -0.06434,-0.0216 -0.06931,0.02598 -0.06976,0.645954 0,0.720929 -0.03678,0.937437 -0.216525,1.30483 -0.135697,0.277339 -0.441711,0.58202 -0.724503,0.720886 -0.224036,0.110004 -0.245494,0.112655 -0.884701,0.112655 -0.650382,0 -0.656963,-6.88e-4 -0.915191,-0.122989 -0.298378,-0.141383 -0.6058687,-0.43171 -0.7632587,-0.720887 -0.224036,-0.41163 -0.227378,-0.45357 -0.227378,-3.014802 0,-1.294509 -0.01304,-2.353877 -0.02946,-2.353863 -0.01638,5e-6 -0.1244413,0.03606 -0.2402943,0.0801 -0.309454,0.117615 -0.720122,0.140157 -1.079522,0.05891 -0.483348,-0.109273 -0.44755,-0.127892 -0.507978,0.257863 -0.02908,0.185578 -0.17525,1.270632 -0.325046,2.411224 -0.300765,2.290038 -0.314947,2.348934 -0.629936,2.663921 -0.199504,0.199509 -0.36064,0.286707 -0.641303,0.346231 l -0.218074,0.04599 0.218074,0.09973 c 0.120076,0.05472 1.853155,0.857898 3.8509263,1.784903 0.8389087,0.389268 1.5723817,0.728435 2.4959727,1.15652 l 0.01189,-0.02584 5.755339,2.647578 c 4.597177,-1.882029 8.314624,-6.273791 8.229968,-11.563494 l -0.0167,-1.043767 c -0.0021,-0.134077 0.0043,-0.342603 5.2e-5,-0.475662 -0.05344,-0.611444 -0.106376,-1.211767 -0.237808,-1.789122 -0.191532,-0.07993 -0.875736,-0.184526 -1.457211,-0.454861 L 21.99768,9.016159 c -0.017,-0.0045 -0.05185,-0.01823 -0.05994,-0.01809 z m -13.774869,1.1498 c -0.04576,-6.09e-4 -0.08852,0.01696 -0.158647,0.05323 -0.225777,0.116745 -0.256117,0.45865 -0.05478,0.617016 0.141293,0.111144 0.348158,0.104024 0.468188,-0.01602 0.198049,-0.198044 0.159923,-0.482685 -0.07958,-0.596345 -0.08087,-0.03836 -0.129413,-0.05729 -0.175183,-0.05788 z m 7.050214,0.988055 c -0.138184,0 -0.185639,0.0167 -0.20102,0.06976 -0.0111,0.03821 -0.111447,0.533551 -0.223242,1.101225 -0.111792,0.56768 -0.212688,1.063538 -0.223758,1.101741 -0.01721,0.05939 0.0078,0.06977 0.172598,0.06977 h 0.192752 l 0.13126,-0.668695 c 0.0722,-0.36776 0.14687,-0.693801 0.16588,-0.724503 0.02576,-0.04158 0.125659,-0.05554 0.391708,-0.05374 0.567502,0.0038 0.590854,0.05261 0.420129,0.8909 -0.05458,0.268007 -0.09922,0.502587 -0.09922,0.521417 0,0.01883 0.08601,0.03462 0.191204,0.03462 h 0.191201 l 0.106455,-0.569476 c 0.136219,-0.728433 0.136954,-0.856936 0.0052,-0.980819 -0.09188,-0.08631 -0.141669,-0.09671 -0.526066,-0.108003 -0.626441,-0.01841 -0.618448,-0.01538 -0.590664,-0.239778 0.01275,-0.102563 0.03485,-0.244272 0.04961,-0.315228 l 0.02687,-0.12919 z m 1.851052,0.668692 -0.224793,1.124479 c -0.123632,0.618519 -0.224806,1.148186 -0.224793,1.176673 0,0.03698 0.05388,0.04843 0.187585,0.03979 l 0.187068,-0.0124 0.05478,-0.278018 c 0.03014,-0.15284 0.07148,-0.297964 0.09198,-0.322977 0.02269,-0.0277 0.219067,-0.05162 0.502295,-0.06098 0.529357,-0.01752 0.66661,-0.06509 0.918808,-0.317293 0.269632,-0.269629 0.382876,-0.829826 0.213424,-1.056783 -0.188418,-0.252365 -0.233937,-0.265377 -1.000975,-0.27957 z m -4.49275,0.0062 -0.04289,0.208772 c -0.02347,0.114623 -0.129154,0.641522 -0.235127,1.170987 l -0.192755,0.962734 h 0.19017 0.189653 l 0.04599,-0.228409 c 0.09575,-0.476935 0.03553,-0.43602 0.674376,-0.456822 0.456533,-0.01487 0.592547,-0.06139 0.827341,-0.282151 0.195485,-0.18378 0.293799,-0.404019 0.312642,-0.700218 0.02033,-0.319352 -0.06709,-0.483285 -0.317293,-0.596862 -0.143079,-0.06495 -0.262417,-0.07625 -0.809771,-0.077 z m 0.610299,0.208772 c 0.07406,-0.0017 0.160713,9.73e-4 0.242363,0.0088 0.414076,0.0388 0.51257,0.125298 0.506945,0.444415 -0.0062,0.346863 -0.168167,0.627102 -0.417544,0.721921 -0.156491,0.05951 -0.637874,0.08984 -0.739492,0.04651 -0.109437,-0.04667 -0.110263,-0.02679 0.02119,-0.65319 0.10264,-0.489058 0.113046,-0.514397 0.220142,-0.549836 0.03094,-0.01023 0.09233,-0.01689 0.166399,-0.01861 z m 4.591452,0.01137 c 0.178141,-1.48e-4 0.37265,0.0179 0.460436,0.05426 0.158673,0.06572 0.224324,0.229094 0.194302,0.482658 -0.03314,0.279847 -0.165859,0.496927 -0.361733,0.591177 -0.161229,0.07758 -0.597585,0.131773 -0.766363,0.09509 -0.06461,-0.01404 -0.0894,-0.04819 -0.0894,-0.122473 0,-0.149109 0.158636,-0.978644 0.199988,-1.045414 0.02258,-0.03651 0.184629,-0.05513 0.36277,-0.0553 z"
       sodipodi:nodetypes="ccccccccccccccccccccsccccsccscccccsccccccssscccscsscccccccccscccsscccccccccccccsccssccccssscccccscscccccccccsccccccccccccscccccccccccsscssscss" />
  </g>
</svg>
